<?xml version="1.0" encoding="iso-8859-1"?>
<!-- Generator: Adobe Illustrator 16.0.0, SVG Export Plug-In . SVG Version: 6.00 Build 0)  -->
<!DOCTYPE svg PUBLIC "-//W3C//DTD SVG 1.1//EN" "http://www.w3.org/Graphics/SVG/1.1/DTD/svg11.dtd">
<svg version="1.1" id="&#x56FE;&#x5C42;_1" xmlns="http://www.w3.org/2000/svg" xmlns:xlink="http://www.w3.org/1999/xlink" x="0px"
	 y="0px" width="37.495px" height="47.994px" viewBox="0 0 37.495 47.994" style="enable-background:new 0 0 37.495 47.994;"
	 xml:space="preserve" fill="#8bc24a">
<g>
	<path style="fill-rule:evenodd;clip-rule:evenodd;fill:#8bc24a;" d="M26.126,15.071c1.045,0.881,2.395,1.414,3.87,1.414
		c3.317,0,6.006-2.683,6.006-5.993c0-3.31-2.689-5.993-6.006-5.993c-0.868,0-1.691,0.188-2.437,0.519
		c0.595,1.202,0.938,2.55,0.938,3.981C28.497,11.342,27.593,13.469,26.126,15.071z"/>
	<path style="fill-rule:evenodd;clip-rule:evenodd;fill:#8bc24a;" d="M8.999,16.485c1.476,0,2.825-0.533,3.87-1.414
		c-1.467-1.602-2.371-3.729-2.371-6.072c0-1.431,0.343-2.779,0.938-3.981C10.69,4.687,9.867,4.5,8.999,4.5
		c-3.317,0-6.005,2.683-6.005,5.993C2.994,13.802,5.682,16.485,8.999,16.485z"/>
	<path style="fill-rule:evenodd;clip-rule:evenodd;fill:#8bc24a;" d="M7.501,18.02C4.077,18.199,0,19.498,0,19.498l1.5,10.499
		l3,2.999v8.999c0,0,1.971,1.5,3.75,1.5c1.757,0,3.75-1.5,3.75-1.5v-8.499l-3-2L7.501,18.02z"/>
	<path style="fill-rule:evenodd;clip-rule:evenodd;fill:#8bc24a;" d="M31.476,18.182l-1.479,13.314l-4.5,3v7.499
		c0,0,1.971,1.5,3.75,1.5c1.757,0,3.75-1.5,3.75-1.5v-8.999l3.321-2.709l1.178-10.566C37.495,19.72,34.483,18.625,31.476,18.182z"/>
	<path style="fill-rule:evenodd;clip-rule:evenodd;fill:#8bc24a;" d="M29.996,19.498c0,0-6.013-1.5-10.499-1.5
		c-4.513,0-10.499,1.5-10.499,1.5l1.5,11.999l4.5,3v10.499c0,0,2.236,1.5,4.5,1.5c2.236,0,4.5-1.5,4.5-1.5V34.496l4.5-3
		L29.996,19.498z"/>
	<circle style="fill-rule:evenodd;clip-rule:evenodd;fill:#8bc24a;" cx="19.498" cy="8.999" r="7.499"/>
</g>
</svg>
