<?xml version="1.0" encoding="iso-8859-1"?>
<!-- Generator: Adobe Illustrator 16.0.0, SVG Export Plug-In . SVG Version: 6.00 Build 0)  -->
<!DOCTYPE svg PUBLIC "-//W3C//DTD SVG 1.1//EN" "http://www.w3.org/Graphics/SVG/1.1/DTD/svg11.dtd">
<svg version="1.1" id="&#x56FE;&#x5C42;_1" xmlns="http://www.w3.org/2000/svg" xmlns:xlink="http://www.w3.org/1999/xlink" x="0px"
	 y="0px" width="50.665px" height="45.088px" viewBox="0 0 50.665 45.088" style="enable-background:new 0 0 50.665 45.088;"
	 xml:space="preserve" fill="#ff9700">
<g>
	<polygon style="fill:#ff9700;" points="44.934,18.513 30.006,33.648 22.076,25.728 16.552,31.333 29.028,43.983 29.079,43.935 
		30.26,45.135 50.665,24.354 	"/>
	<path style="fill:#ff9700;" d="M26.125,13.524c1.045,0.881,2.395,1.414,3.869,1.414c3.318,0,6.006-2.684,6.006-5.993
		c0-3.309-2.688-5.993-6.006-5.993c-0.867,0-1.691,0.188-2.436,0.521c0.594,1.201,0.938,2.549,0.938,3.979
		C28.497,9.796,27.592,11.923,26.125,13.524z"/>
	<path style="fill:#ff9700;" d="M8.998,14.938c1.477,0,2.824-0.533,3.871-1.414c-1.469-1.602-2.371-3.729-2.371-6.072
		c0-1.432,0.342-2.778,0.938-3.979C10.69,3.141,9.867,2.952,8.998,2.952c-3.315,0-6.006,2.685-6.006,5.993
		C2.992,12.255,5.683,14.938,8.998,14.938z"/>
	<path style="fill:#ff9700;" d="M7.5,16.473C4.076,16.651,0,17.95,0,17.95l1.5,10.5l2.998,2.998v9c0,0,1.973,1.5,3.75,1.5
		c1.758,0,3.75-1.5,3.75-1.5v-8.5l-3-1.998L7.5,16.473z"/>
	<circle style="fill:#ff9700;" cx="19.496" cy="7.452" r="7.499"/>
	<path style="fill:#ff9700;" d="M29.995,29.95l-1.369,0.912l1.41,1.43l6.637-6.735l0.822-7.383c0,0-3.012-1.097-6.02-1.538
		L29.995,29.95z"/>
	<path style="fill:#ff9700;" d="M21.408,23.551l6.622,6.709l0.467-0.312l1.498-11.999c0,0-6.012-1.499-10.499-1.499
		c-4.513,0-10.498,1.499-10.498,1.499l1.5,11.999l4.5,3v10.498c0,0,2.235,1.5,4.498,1.5c2.236,0,4.5-1.5,4.5-1.5v-2.875
		l-9.686-9.818L21.408,23.551z"/>
</g>
</svg>
