<?xml version="1.0" encoding="utf-8"?>
<!-- Generator: Adobe Illustrator 22.0.1, SVG Export Plug-In . SVG Version: 6.00 Build 0)  -->
<svg version="1.1" id="Layer_1" xmlns="http://www.w3.org/2000/svg" xmlns:xlink="http://www.w3.org/1999/xlink" x="0px" y="0px"
	 viewBox="0 0 512 512" style="enable-background:new 0 0 512 512;" xml:space="preserve">
<path d="M502.7,198.5L313.6,9.4c-7.2-7.2-16.9-10-26.4-9.3h-62.4c-9.5-0.8-19.2,2-26.4,9.3L160,47.8V0.1H64v143.6L9.3,198.5
	c-7.2,7.2-10,16.9-9.2,26.4v63.2c0,17.7,14.3,32,32,32h32v160c0,17.7,14.3,32,32,32H416c17.7,0,32-14.3,32-32V320h32
	c17.7,0,32-14.3,32-32v-63.2C512.7,215.4,509.9,205.7,502.7,198.5z M448,256.1h-64v192h-64V320H192v128h-64v-192H64v-17.7
	L238.3,64.1h35.5L448,238.3V256.1z"/>
</svg>
