<?xml version="1.0" encoding="iso-8859-1"?>
<!-- Generator: Adobe Illustrator 16.0.0, SVG Export Plug-In . SVG Version: 6.00 Build 0)  -->
<!DOCTYPE svg PUBLIC "-//W3C//DTD SVG 1.1//EN" "http://www.w3.org/Graphics/SVG/1.1/DTD/svg11.dtd">
<svg version="1.1" id="&#x56FE;&#x5C42;_1" xmlns="http://www.w3.org/2000/svg" xmlns:xlink="http://www.w3.org/1999/xlink" x="0px"
	 y="0px" width="47.994px" height="44.994px" viewBox="0 0 47.994 44.994" style="enable-background:new 0 0 47.994 44.994;"
	 xml:space="preserve" fill="#ea1e63">
<g>
	<path d="M8.249,7.499c1.243,0,2.25-1.007,2.25-2.25v-3c0-1.243-1.007-2.25-2.25-2.25s-2.25,1.007-2.25,2.25v3
		C5.999,6.492,7.007,7.499,8.249,7.499z"/>
	<path d="M18.747,7.499c1.243,0,2.25-1.007,2.25-2.25v-3c0-1.243-1.007-2.25-2.25-2.25c-1.242,0-2.249,1.007-2.25,2.25v3
		C16.497,6.492,17.505,7.499,18.747,7.499z"/>
	<path d="M29.246,7.499c1.243,0,2.25-1.007,2.25-2.25v-3c0-1.243-1.007-2.25-2.25-2.25s-2.25,1.007-2.25,2.25v3
		C26.996,6.492,28.003,7.499,29.246,7.499z"/>
	<path d="M39.745,7.499c1.242,0,2.25-1.007,2.25-2.25v-3c0-1.243-1.008-2.25-2.25-2.25c-1.243,0-2.25,1.007-2.25,2.25v3
		C37.495,6.492,38.502,7.499,39.745,7.499z"/>
	<path d="M44.994,4.499h-1.499v1.5c0,1.657-1.344,3-3,3h-1.5c-1.657,0-3-1.343-3-3v-1.5h-2.999v1.5c0,1.657-1.343,3-3,3h-1.5
		c-1.657,0-3-1.343-3-3v-1.5h-2.998v1.5c0,1.657-1.343,3-3,3h-1.5c-1.657,0-3-1.343-3-3v-1.5h-2.999v1.5c0,1.657-1.343,3-3,3h-1.5
		c-1.657,0-3-1.343-3-3v-1.5h-1.5C1.343,4.499,0,5.841,0,7.498v34.497c0,1.656,1.343,3,2.999,3h41.995c1.657,0,3-1.344,3-3V7.499
		C47.994,5.842,46.649,4.499,44.994,4.499z M35.995,35.995H11.998c-0.828,0-1.5-0.672-1.5-1.5c0.001-0.83,0.672-1.5,1.5-1.5h23.997
		c0.828,0,1.5,0.67,1.5,1.5C37.495,35.323,36.823,35.995,35.995,35.995z M35.995,28.495H11.998c-0.828,0-1.5-0.67-1.5-1.5
		c0.001-0.828,0.672-1.5,1.5-1.5h23.997c0.828,0,1.5,0.672,1.5,1.5C37.495,27.825,36.823,28.495,35.995,28.495z M35.995,20.997
		H11.998c-0.828,0-1.5-0.671-1.5-1.5c0.001-0.829,0.672-1.5,1.5-1.5h23.997c0.828,0,1.5,0.671,1.5,1.5
		C37.495,20.325,36.823,20.997,35.995,20.997z"/>
</g>
</svg>
