<?xml version="1.0" encoding="iso-8859-1"?>
<!-- Generator: Adobe Illustrator 16.0.0, SVG Export Plug-In . SVG Version: 6.00 Build 0)  -->
<!DOCTYPE svg PUBLIC "-//W3C//DTD SVG 1.1//EN" "http://www.w3.org/Graphics/SVG/1.1/DTD/svg11.dtd">
<svg version="1.1" id="&#x56FE;&#x5C42;_1" xmlns="http://www.w3.org/2000/svg" xmlns:xlink="http://www.w3.org/1999/xlink" x="0px"
	 y="0px" width="53.917px" height="44.994px" viewBox="0 0 53.917 44.994" style="enable-background:new 0 0 53.917 44.994;"
	 xml:space="preserve" fill="#00bcd5">
<g>
	<path style="fill:#00bcd5;" d="M8.249,7.499c1.243,0,2.25-1.007,2.25-2.25v-3c0-1.243-1.007-2.25-2.25-2.25s-2.25,1.007-2.25,2.25
		v3C5.999,6.492,7.007,7.499,8.249,7.499z"/>
	<path style="fill:#00bcd5;" d="M18.747,7.499c1.243,0,2.25-1.007,2.25-2.25v-3c0-1.243-1.007-2.25-2.25-2.25
		c-1.242,0-2.249,1.007-2.25,2.25v3C16.497,6.492,17.505,7.499,18.747,7.499z"/>
	<path style="fill:#00bcd5;" d="M29.246,7.499c1.243,0,2.25-1.007,2.25-2.25v-3c0-1.243-1.007-2.25-2.25-2.25s-2.25,1.007-2.25,2.25
		v3C26.996,6.492,28.003,7.499,29.246,7.499z"/>
	<path style="fill:#00bcd5;" d="M39.745,7.499c1.242,0,2.25-1.007,2.25-2.25v-3c0-1.243-1.008-2.25-2.25-2.25
		c-1.243,0-2.25,1.007-2.25,2.25v3C37.495,6.492,38.502,7.499,39.745,7.499z"/>
	<path style="fill:#00bcd5;" d="M32.145,43.649l-7.55-7.654H11.998c-0.828,0-1.5-0.672-1.5-1.5c0.001-0.83,0.672-1.5,1.5-1.5h9.638
		l-4.072-4.128l0.367-0.372h-5.933c-0.828,0-1.5-0.67-1.5-1.5c0.001-0.828,0.672-1.5,1.5-1.5h8.888l3.774-3.83l3.78,3.83h7.555
		c0.58,0,1.077,0.333,1.327,0.815l10.672-10.831v-7.98c0-1.657-1.345-3-3-3h-1.499v1.5c0,1.657-1.344,3-3,3h-1.5
		c-1.657,0-3-1.343-3-3v-1.5h-2.999v1.5c0,1.657-1.343,3-3,3h-1.5c-1.657,0-3-1.343-3-3v-1.5h-2.998v1.5c0,1.657-1.343,3-3,3h-1.5
		c-1.657,0-3-1.343-3-3v-1.5h-2.999v1.5c0,1.657-1.343,3-3,3h-1.5c-1.657,0-3-1.343-3-3v-1.5h-1.5C1.343,4.499,0,5.841,0,7.498
		v34.497c0,1.656,1.343,3,2.999,3h30.585l-1.382-1.403L32.145,43.649z M11.998,17.997h23.997c0.828,0,1.5,0.671,1.5,1.5
		c0,0.828-0.672,1.5-1.5,1.5H11.998c-0.828,0-1.5-0.671-1.5-1.5C10.499,18.668,11.17,17.997,11.998,17.997z"/>
	<polygon style="fill:#00bcd5;" points="35.169,28.495 31.401,28.495 33.287,30.405 	"/>
	<path style="fill:#00bcd5;" d="M44.994,44.995c1.657,0,3-1.344,3-3V30.371l-14.41,14.624H44.994z"/>
	<polygon style="fill:#00bcd5;" points="25.329,23.871 19.803,29.477 32.28,42.127 32.33,42.078 33.513,43.278 53.917,22.498 
		48.187,16.656 33.259,31.792"/>
</g>
</svg>
