<?xml version="1.0" encoding="utf-8"?>
<!-- Generator: Adobe Illustrator 16.0.0, SVG Export Plug-In . SVG Version: 6.00 Build 0)  -->
<!DOCTYPE svg PUBLIC "-//W3C//DTD SVG 1.1//EN" "http://www.w3.org/Graphics/SVG/1.1/DTD/svg11.dtd">
<svg version="1.1" id="图层_1" xmlns="http://www.w3.org/2000/svg" xmlns:xlink="http://www.w3.org/1999/xlink" x="0px" y="0px"
	 width="50.253px" height="37.52px" viewBox="0 0 50.253 37.52" enable-background="new 0 0 50.253 37.52" xml:space="preserve" fill="#cfcfcf">
<g>
	<path d="M8.858,16.8c3.455,0,6.257-2.831,6.257-6.325c0-3.498-2.802-6.328-6.257-6.328c-3.457,0-6.255,2.831-6.255,6.328
		C2.603,13.969,5.402,16.8,8.858,16.8z"/>
	<path d="M21.238,0v37.52h29.016V0H21.238z M47.776,33.604L47.776,33.604H23.715v-4.241h24.061V33.604z M47.776,25.119
		L47.776,25.119H23.715v-4.236h24.061V25.119z M47.776,16.638L47.776,16.638H23.715v-4.241h24.061V16.638z M47.776,8.154
		L47.776,8.154H23.715V3.916h24.061V8.154z"/>
	<path d="M8.859,18.717C3.967,18.717,0,22.726,0,27.678v6.604h17.719v-0.001v-6.604C17.719,22.725,13.75,18.717,8.859,18.717z"/>
</g>
</svg>
