<?xml version="1.0" encoding="iso-8859-1"?>
<!-- Generator: Adobe Illustrator 16.0.0, SVG Export Plug-In . SVG Version: 6.00 Build 0)  -->
<!DOCTYPE svg PUBLIC "-//W3C//DTD SVG 1.1//EN" "http://www.w3.org/Graphics/SVG/1.1/DTD/svg11.dtd">
<svg version="1.1" id="&#x56FE;&#x5C42;_1" xmlns="http://www.w3.org/2000/svg" xmlns:xlink="http://www.w3.org/1999/xlink" x="0px"
	 y="0px" width="50.25px" height="42.011px" viewBox="0 0 50.25 42.011" style="enable-background:new 0 0 50.25 42.011;"
	 xml:space="preserve" fill="#8bc24a">
<path d="M3.745,0h32.778c2.068,0,3.746,1.675,3.746,3.742V24.64c0,2.066-1.678,3.742-3.746,3.742H19.546l-9.554,8.597l-0.001-8.597
	H3.745C1.676,28.382,0,26.707,0,24.64V3.742C0,1.675,1.676,0,3.745,0z"/>
<path d="M41.816,26.473c0-1.569,0-18.256,0-18.256h4.688c2.068,0,3.746,1.571,3.746,3.638v18.294c0,2.067-1.678,3.324-3.746,3.324
	h-6.258l0.012,8.538l-9.416-8.538h-7.217c-2.068,0-3.745-1.257-3.745-3.324c0,0,16.761-0.093,18.332-0.093
	S41.816,28.042,41.816,26.473z"/>
</svg>
